<svg xmlns:mydata="http://www.w3.org/2000/svg" mydata:contrastcolor="ffffff" mydata:template="SingleColorHex2" mydata:presentation="2.5" mydata:layouttype="undefined" mydata:specialfontid="undefined" mydata:id1="929" mydata:id2="1034" mydata:companyname="Akshat Mittal" mydata:companytagline="" version="1.1" xmlns="http://www.w3.org/2000/svg" xmlns:xlink="http://www.w3.org/1999/xlink" style="height: 201px;" viewBox="0 50 550 370"><g fill="none" fill-rule="none" stroke="none" stroke-width="1" stroke-linecap="butt" stroke-linejoin="miter" stroke-miterlimit="10" stroke-dasharray="" stroke-dashoffset="0" font-family="none" font-weight="none" font-size="none" text-anchor="none" style="mix-blend-mode: normal"><g data-paper-data="{&quot;isGlobalGroup&quot;:true,&quot;bounds&quot;:{&quot;x&quot;:65,&quot;y&quot;:197.83579532199786,&quot;width&quot;:420.0000000000001,&quot;height&quot;:74.32844514044632}}"><g data-paper-data="{&quot;isSecondaryText&quot;:true}" fill="#101820" fill-rule="nonzero" id="element-id-51820"><path d="M193.62143,272.14387c0.99644,0 1.78953,-0.79309 1.78953,-1.76919c0,-0.95577 -0.73208,-1.97255 -1.58617,-3.49771l5.2059,-8.0122v11.87596l-1.42349,1.22013h4.47382l-1.42349,-1.22013v-11.77428l1.42349,-1.22013h-2.56228l-5.79563,8.9273l-4.9212,-8.9273h-2.21657l1.42349,1.64718v11.34723l-1.42349,1.22013h3.05033l-1.42349,-1.22013v-11.08287l4.61617,8.37824c-0.5694,0.89476 -0.99644,1.64718 -0.99644,2.33859c0,0.61007 0.32537,1.15913 0.79309,1.46416c0.24403,0.20336 0.5694,0.30503 0.99644,0.30503zM193.09271,271.63548c-0.54906,0 -1.05745,-0.52872 -1.05745,-1.2608c0,-0.58973 0.38638,-1.28114 0.9151,-2.13523c0.58973,0.99644 1.07778,1.85053 1.07778,2.37926c0,0.54906 -0.36604,1.01678 -0.93543,1.01678z" data-paper-data="{&quot;glyphName&quot;:&quot;M&quot;,&quot;glyphIndex&quot;:0,&quot;firstGlyphOfWord&quot;:true,&quot;word&quot;:1}" id="element-id-10378"></path><path d="M230.6462,271.96085h4.47382l-1.42349,-1.22013v-11.77428l1.42349,-1.22013h-4.47382l1.42349,1.22013v11.77428z" data-paper-data="{&quot;glyphName&quot;:&quot;I&quot;,&quot;glyphIndex&quot;:1,&quot;word&quot;:1}" id="element-id-30205"></path><path d="M265.25885,257.94966v12.79105l-1.40315,1.22013h4.45348l-1.42349,-1.22013v-12.79105h1.01678l4.06711,2.23691l-0.40671,-2.44026h-10.96086l-0.40671,2.44026l4.06711,-2.23691z" data-paper-data="{&quot;glyphName&quot;:&quot;T&quot;,&quot;glyphIndex&quot;:2,&quot;word&quot;:1}" id="element-id-21320"></path><path d="M306.11219,257.94966v12.79105l-1.40315,1.22013h4.45348l-1.42349,-1.22013v-12.79105h1.01678l4.06711,2.23691l-0.40671,-2.44026h-10.96086l-0.40671,2.44026l4.06711,-2.23691z" data-paper-data="{&quot;glyphName&quot;:&quot;T&quot;,&quot;glyphIndex&quot;:3,&quot;word&quot;:1}" id="element-id-69184"></path><path d="M345.25433,257.74631h-1.85053v0.20336h1.34215l-4.65684,12.70971l-1.60651,1.30147h3.00966l-1.1998,-1.22013l1.11845,-3.03h5.8363l1.15913,3.03l-1.1998,1.22013h4.51449l-1.62684,-1.30147zM341.47192,267.50737l2.8063,-7.6665l2.90798,7.6665z" data-paper-data="{&quot;glyphName&quot;:&quot;A&quot;,&quot;glyphIndex&quot;:4,&quot;word&quot;:1}" id="element-id-39265"></path><path d="M390.7035,272.1642l0.48805,-2.84698l-4.47382,2.64362h-2.50127v-8.05287c0,-0.87443 0.02034,-1.72852 0.08134,-2.48094c1.42349,-1.01678 2.82664,-1.44382 2.82664,-2.62328c0,-0.69141 -0.46772,-1.05745 -1.07778,-1.05745c-2.1759,0 -3.21302,1.80986 -3.41637,4.94154c-1.05745,1.30147 -1.91154,3.29436 -1.91154,6.58871h0.20336c0,-3.091 0.73208,-4.98221 1.68785,-6.24301l-0.02034,0.87443v7.0361l-1.42349,1.22013zM384.31814,261.16268c0.18302,-1.87087 0.65074,-3.15201 1.85053,-3.15201c0.44738,0 0.73208,0.26436 0.75241,0.79309c0,0.99644 -1.15913,1.36248 -2.60295,2.35892z" data-paper-data="{&quot;glyphName&quot;:&quot;L&quot;,&quot;glyphIndex&quot;:5,&quot;lastGlyphOfWord&quot;:true,&quot;word&quot;:1}" id="element-id-53800"></path></g><g data-paper-data="{&quot;isPrimaryText&quot;:true}" fill="#101820" fill-rule="nonzero" id="element-id-54870"><path d="M228.79445,247.00846h-4.09047l-19.84313,-49.17267l-20.01719,49.17267h-3.82938v2.34984h2.95906v0h3.22016v0h4.78672v-2.34984h-3.82938l5.65703,-14.01203h21.93188l5.74406,14.01203h-3.74234v2.34984h4.69969v0h3.22016v0h3.13313zM195.02632,230.03736l9.83453,-24.10766l9.66047,24.10766z" data-paper-data="{&quot;glyphName&quot;:&quot;A&quot;,&quot;glyphIndex&quot;:0,&quot;firstGlyphOfWord&quot;:true,&quot;word&quot;:1}" id="element-id-4987"></path><path d="M279.80928,246.57331h-4.1775l-23.23735,-23.15032l22.10594,-21.75782h3.74234v-2.785h-10.96594v2.785h2.95906l-21.40969,20.97454v-20.97454h3.82938v-2.785h-11.05297v2.785h4.09047v44.90813h-4.09047v2.785h11.05297v-2.785h-3.82938v-19.7561l1.30547,-1.3925l21.32266,21.1486h-2.61094v2.785h10.96594z" data-paper-data="{&quot;glyphName&quot;:&quot;K&quot;,&quot;glyphIndex&quot;:1,&quot;word&quot;:1}" id="element-id-87272"></path><path d="M320.98957,225.51174l-9.48641,-4.96078c-4.09047,-1.91469 -9.05125,-4.09047 -9.05125,-9.31235c0,-5.22188 4.09047,-9.57344 9.39938,-9.57344c3.82938,0 6.70141,1.56656 8.79016,4.09047h-3.13313v2.785l10.96594,-0.08703v-2.69797h-4.26453c-2.34984,-4.35156 -7.13656,-7.04953 -12.09735,-7.04953c-7.48469,0 -12.7936,5.22188 -12.7936,12.61953c0,4.00344 1.82766,6.87547 5.13484,8.96422l9.05125,4.78672c4.26453,2.08875 10.0086,4.43859 10.0086,10.09563c0,6.61438 -5.74406,11.74922 -12.27141,11.74922c-5.39594,0 -9.05125,-2.87203 -11.22703,-7.2236h3.39422v-2.785h-10.96594v2.785h4.1775c2.34984,6.09219 7.74578,10.18266 14.44719,10.18266c8.09391,0 15.5786,-6.17922 15.5786,-14.44719c0,-4.52563 -1.91469,-7.57172 -5.65703,-9.92156z" data-paper-data="{&quot;glyphName&quot;:&quot;S&quot;,&quot;glyphIndex&quot;:2,&quot;word&quot;:1}" id="element-id-94430"></path><path d="M382.27409,246.57331v-44.90813h4.00344v-2.785h-11.05297v2.785h3.82938v18.97282h-30.28688v-18.97282h3.82938v-2.785h-11.05297v2.785h4.09047v44.90813h-4.09047v2.785h4.09047v0h3.13313v0h3.82938v-2.785h-3.82938v-22.88922h30.28688v22.88922h-3.82938v2.785h3.82938v0h3.22016v0h4.00344v-2.785z" data-paper-data="{&quot;glyphName&quot;:&quot;H&quot;,&quot;glyphIndex&quot;:3,&quot;word&quot;:1}" id="element-id-16194"></path><path d="M450.69517,247.00846h-4.09047l-19.84313,-49.17267l-20.01719,49.17267h-3.82938v2.34984h2.95906v0h3.22016v0h4.78672v-2.34984h-3.82938l5.65703,-14.01203h21.93188l5.74406,14.01203h-3.74234v2.34984h4.69969v0h3.22016v0h3.13313zM416.92704,230.03736l9.83453,-24.10766l9.66047,24.10766z" data-paper-data="{&quot;glyphName&quot;:&quot;A&quot;,&quot;glyphIndex&quot;:4,&quot;word&quot;:1}" id="element-id-4809"></path><path d="M485,202.36142v-2.95906h-28.89438v2.95906h12.88063v44.21188h-3.91641v2.785h10.96594v-2.785h-3.91641v-44.21188z" data-paper-data="{&quot;glyphName&quot;:&quot;T&quot;,&quot;glyphIndex&quot;:5,&quot;lastGlyphOfWord&quot;:true,&quot;word&quot;:1}" id="element-id-13546"></path></g><g data-paper-data="{&quot;fillRule&quot;:&quot;nonzero&quot;,&quot;fillRuleOriginal&quot;:&quot;nonzero&quot;,&quot;isIcon&quot;:true,&quot;iconStyle&quot;:&quot;standalone&quot;,&quot;selectedEffects&quot;:{&quot;container&quot;:&quot;&quot;,&quot;transformation&quot;:&quot;&quot;,&quot;pattern&quot;:&quot;&quot;},&quot;bounds&quot;:{&quot;x&quot;:65,&quot;y&quot;:197.83579532199786,&quot;width&quot;:77.83246612543348,&quot;height&quot;:74.32844514044632},&quot;iconType&quot;:&quot;initial&quot;,&quot;initialText&quot;:&quot;A&quot;,&quot;rawInitialId&quot;:844,&quot;suitableAsStandaloneIcon&quot;:true}" fill-rule="evenodd" id="element-id-12577"><g data-paper-data="{&quot;isPathIcon&quot;:true}" id="element-id-23506"><path d="M138.05444,272.16424l-34.0852,-69.44442l-34.1909,69.44442h-4.77833l36.52722,-74.32845h4.77803l36.52722,74.32845z" fill="#101820" id="element-id-69685"></path><path d="M116.07431,246.25509l-11.89207,11.78707l-11.78677,-11.78707l11.78677,-11.89207zM104.18223,240.52205l-5.73423,5.73303l5.73423,5.73403l5.73403,-5.73403z" fill="#101820" id="element-id-86024"></path></g></g><path d="M158.10519,272.1642v-74.32841h1.44755v74.32841z" data-paper-data="{&quot;isShapeTextSeparator&quot;:true}" fill="#101820" fill-rule="nonzero" id="element-id-80498"></path></g></g><g class="watermark-group" style="opacity:0.040000010281801224"><path class="watermark-path" d="M129.52,370.3a11.88,11.88,0,0,1,2.58,5.58,12,12,0,0,1,.11,3,11.81,11.81,0,0,1-.64,2.93,12.34,12.34,0,0,1-1.41,2.72,11.65,11.65,0,0,1-2.13,2.32,12,12,0,0,1-2.64,1.69,13,13,0,0,1-2.91.9,12.47,12.47,0,0,1-3,.12,12.17,12.17,0,0,1-2.93-.64,11.8,11.8,0,0,1-2.72-1.38,12.19,12.19,0,0,1-4-4.79,11.85,11.85,0,0,1-.89-2.92,12.14,12.14,0,0,1-.13-3,11.54,11.54,0,0,1,.64-2.92,11.67,11.67,0,0,1,3.5-5,11.44,11.44,0,0,1,2.67-1.69,11.64,11.64,0,0,1,2.92-.91,10.71,10.71,0,0,1,3-.12,11.68,11.68,0,0,1,5.66,2,11.7,11.7,0,0,1,2.34,2.12m-1.4,8.76a13,13,0,0,1-1.22,2.32,9.68,9.68,0,0,1-1.81,2,7.44,7.44,0,0,1-2.38,1.37,6.17,6.17,0,0,1-5.11-.46,8.73,8.73,0,0,1-3.85-4.58,6.69,6.69,0,0,1-.34-2.66,6.09,6.09,0,0,1,.77-2.47,7.15,7.15,0,0,1,1.75-2.11,9.58,9.58,0,0,1,1.09-.81,8.23,8.23,0,0,1,1.12-.63,8.14,8.14,0,0,1,1.19-.46,12.71,12.71,0,0,1,1.32-.37l2,2.38a12.83,12.83,0,0,0-1.56.17,7.86,7.86,0,0,0-1.23.32,4.5,4.5,0,0,0-1,.49,6.41,6.41,0,0,0-.93.67,4.49,4.49,0,0,0-1.15,1.39,3.87,3.87,0,0,0-.45,1.58,4.12,4.12,0,0,0,.26,1.63,6.11,6.11,0,0,0,2.36,2.82,4.43,4.43,0,0,0,1.57.53,3.91,3.91,0,0,0,1.62-.17,4.71,4.71,0,0,0,1.57-.89,10.5,10.5,0,0,0,.83-.79,5.71,5.71,0,0,0,.65-.93,10.13,10.13,0,0,0,.54-1.14,12.24,12.24,0,0,0,.44-1.49l2,2.33m-14.46,4.55a8.86,8.86,0,0,0,2.78,2.22,9,9,0,0,0,3.29.94,9.15,9.15,0,0,0,3.39-.37,8.68,8.68,0,0,0,3.11-1.69,8.8,8.8,0,0,0,2.22-2.78,9.15,9.15,0,0,0,1-3.29,8.95,8.95,0,0,0-4.83-8.76,9,9,0,0,0-6.73-.57,9,9,0,0,0-5.33,4.47,8.94,8.94,0,0,0-.57,6.71,8.76,8.76,0,0,0,1.7,3.12"></path><path class="watermark-path" d="M147,349c-.48.12-1.09.31-1.82.57a24.37,24.37,0,0,0-2.4,1A28.35,28.35,0,0,0,140,352a20.72,20.72,0,0,0-2.71,1.94c-.7.59-1.28,1.11-1.74,1.57a15.07,15.07,0,0,0-1.1,1.22,4.09,4.09,0,0,0-.59.92,2.32,2.32,0,0,0-.22.64,1.16,1.16,0,0,0,0,.47,1.83,1.83,0,0,0,.18.29,1.15,1.15,0,0,0,1,.37,5.54,5.54,0,0,0,1.51-.38q.87-.35,1.95-.9l2.26-1.18q1.2-.65,2.49-1.29c.87-.44,1.73-.83,2.59-1.17a18.94,18.94,0,0,1,2.6-.81,9.27,9.27,0,0,1,2.46-.29,6.25,6.25,0,0,1,2.24.49,5.12,5.12,0,0,1,1.89,1.47,6.35,6.35,0,0,1,1.41,2.61,6,6,0,0,1,.09,2.6,8.3,8.3,0,0,1-.9,2.52,17.79,17.79,0,0,1-1.62,2.37,23.92,23.92,0,0,1-2,2.15c-.72.67-1.41,1.29-2.09,1.87a33.79,33.79,0,0,1-5.33,3.7,32.29,32.29,0,0,1-4.91,2.28l-3.61-4.3a21.38,21.38,0,0,0,5.39-1.87,27.2,27.2,0,0,0,5.4-3.56,21.59,21.59,0,0,0,2.38-2.27,8.67,8.67,0,0,0,1.18-1.7,2.32,2.32,0,0,0,.27-1.19,1.34,1.34,0,0,0-.28-.74,1.21,1.21,0,0,0-1-.42,4.32,4.32,0,0,0-1.55.34,15.77,15.77,0,0,0-2,.88c-.72.37-1.48.77-2.27,1.21l-2.45,1.3c-.85.45-1.7.85-2.56,1.21a22.37,22.37,0,0,1-2.54.86,10,10,0,0,1-2.43.32,5.76,5.76,0,0,1-2.2-.45,5,5,0,0,1-1.89-1.45,6.12,6.12,0,0,1-1.31-2.41,6,6,0,0,1-.1-2.41,8.28,8.28,0,0,1,.81-2.38,14.06,14.06,0,0,1,1.49-2.24,22.37,22.37,0,0,1,1.85-2.05q1-1,2-1.77c.7-.59,1.44-1.15,2.23-1.7s1.62-1.06,2.44-1.53,1.63-.91,2.43-1.3,1.58-.75,2.3-1L147,349"></path><path class="watermark-path" d="M186.76,337.57l-10.6-12.63,3.92,18.24-4.66,3.91-17.27-7,10.6,12.63-4.86,4.07-15.09-18,6.59-5.54,18.69,7.52-4.15-19.71,6.57-5.52,15.09,18-4.83,4.05"></path><path class="watermark-path" d="M208.84,313.24l-10,8.42,1.16,4.82L194.56,331l-5.68-25.89,5.42-4.55,24.51,10.09-5.42,4.55-4.55-2m-11.23,3.45,6.57-5.52-8.83-3.87,2.26,9.39"></path><path class="watermark-path" d="M227.49,281.38c-.48.12-1.09.31-1.82.57a24.37,24.37,0,0,0-2.4,1,26.11,26.11,0,0,0-2.7,1.47,20.72,20.72,0,0,0-2.71,1.94c-.7.59-1.28,1.11-1.74,1.57a13.39,13.39,0,0,0-1.1,1.22,4.29,4.29,0,0,0-.59.91,2.48,2.48,0,0,0-.22.65,1.16,1.16,0,0,0,0,.47,1.83,1.83,0,0,0,.18.29,1.15,1.15,0,0,0,1,.37,5.54,5.54,0,0,0,1.51-.38q.87-.34,2-.9l2.26-1.18q1.2-.64,2.49-1.29c.87-.44,1.73-.83,2.59-1.17a18.94,18.94,0,0,1,2.6-.81,9.27,9.27,0,0,1,2.46-.29,6.08,6.08,0,0,1,2.24.49,5.09,5.09,0,0,1,1.89,1.46,6.47,6.47,0,0,1,1.41,2.61,6.07,6.07,0,0,1,.09,2.61,8.3,8.3,0,0,1-.9,2.52,16.32,16.32,0,0,1-1.63,2.36,21.41,21.41,0,0,1-2,2.16c-.72.67-1.41,1.29-2.1,1.86a33.36,33.36,0,0,1-5.32,3.71,31.92,31.92,0,0,1-4.92,2.28l-3.6-4.3a21.38,21.38,0,0,0,5.39-1.87,27.2,27.2,0,0,0,5.4-3.56,21.59,21.59,0,0,0,2.38-2.27,8.67,8.67,0,0,0,1.18-1.7A2.32,2.32,0,0,0,231,293a1.34,1.34,0,0,0-.28-.74,1.21,1.21,0,0,0-1-.42,4.32,4.32,0,0,0-1.55.34,16.54,16.54,0,0,0-2,.88c-.71.37-1.47.77-2.26,1.21l-2.46,1.3c-.84.44-1.7.85-2.55,1.21a24.53,24.53,0,0,1-2.54.86A10,10,0,0,1,214,298a5.76,5.76,0,0,1-2.2-.45,5,5,0,0,1-1.89-1.45,6.12,6.12,0,0,1-1.31-2.41,5.78,5.78,0,0,1-.1-2.41,8,8,0,0,1,.81-2.38,14.61,14.61,0,0,1,1.49-2.25,22.26,22.26,0,0,1,1.85-2q1-1,2-1.77c.7-.59,1.44-1.15,2.23-1.7s1.62-1.06,2.44-1.53,1.63-.91,2.43-1.31,1.58-.74,2.3-1l3.5,4.16"></path><path class="watermark-path" d="M261.64,274.74l-6.29-7.5L243,277.61l6.3,7.5-4.86,4.07-15.09-18,4.85-4.08,5.49,6.55L252,263.3l-5.49-6.55,4.86-4.07,15.09,18-4.86,4.08"></path><path class="watermark-path" d="M272.18,265.9l-15.09-18,4.86-4.08,15.09,18-4.86,4.08"></path><path class="watermark-path" d="M299.65,242.85l-22.51-2.18L287.51,253l-4.85,4.08-15.1-18,5.28-4.43,22.56,2.22L285,224.5l4.83-4.06,15.09,18-5.26,4.42"></path><path class="watermark-path" d="M306.68,205.52a31.88,31.88,0,0,1,5.29-3.66,34.48,34.48,0,0,1,5.14-2.35l3.69,4.39a20.77,20.77,0,0,0-2.37.61,20.47,20.47,0,0,0-2.61,1,25.12,25.12,0,0,0-2.76,1.49,23.9,23.9,0,0,0-2.8,2,20.42,20.42,0,0,0-2.8,2.77,12.77,12.77,0,0,0-1.64,2.52,7,7,0,0,0-.68,2.24,6,6,0,0,0,.66,3.64,8.16,8.16,0,0,0,.94,1.38,9.12,9.12,0,0,0,1.08,1.07,6.39,6.39,0,0,0,1.47.91,6.73,6.73,0,0,0,1.88.48,6.54,6.54,0,0,0,2.28-.18,11.67,11.67,0,0,0,2.74-1.07,19.38,19.38,0,0,0,3.18-2.22c.57-.48,1.06-.92,1.46-1.31a14.57,14.57,0,0,0,1-1.13,11.46,11.46,0,0,0,.81-1.05l.74-1.09-1.82-2.17-5.45,4.57-3.31-3.94,10.31-8.65,7.71,9.19a29,29,0,0,1-1.67,2.43q-1,1.26-2.1,2.52c-.74.84-1.5,1.65-2.3,2.44s-1.58,1.5-2.33,2.14a31,31,0,0,1-3.59,2.61,22.55,22.55,0,0,1-3.64,1.83,15.64,15.64,0,0,1-3.63.89,10.72,10.72,0,0,1-3.49-.15,10.45,10.45,0,0,1-3.28-1.33,12.54,12.54,0,0,1-3-2.67,12,12,0,0,1-2.08-3.44,10.45,10.45,0,0,1-.71-3.5,11.14,11.14,0,0,1,.51-3.51,15.72,15.72,0,0,1,1.56-3.43,21.62,21.62,0,0,1,2.42-3.28,30.3,30.3,0,0,1,3.15-3"></path><path class="watermark-path" d="M336.91,211.59l-15.1-18,4.86-4.08,11.79,14,13.13-11,3.31,3.94-18,15.1"></path><path class="watermark-path" d="M374.54,164.71a12.28,12.28,0,0,1,2.59,4.81,10.44,10.44,0,0,1,0,5,14.62,14.62,0,0,1-2.33,5,25.55,25.55,0,0,1-4.56,4.85,26.07,26.07,0,0,1-5.6,3.67,14.79,14.79,0,0,1-5.38,1.43,10.43,10.43,0,0,1-4.94-.89,13.24,13.24,0,0,1-6.87-8.18,10.48,10.48,0,0,1,0-5,14.51,14.51,0,0,1,2.36-5,25.23,25.23,0,0,1,4.57-4.89,25,25,0,0,1,5.59-3.64,14.45,14.45,0,0,1,5.35-1.43,10.31,10.31,0,0,1,4.93.92,12.22,12.22,0,0,1,4.28,3.38m-4.91,4.11a8.36,8.36,0,0,0-2-1.72,5.5,5.5,0,0,0-2.65-.85,7.72,7.72,0,0,0-3.32.57,14.49,14.49,0,0,0-4,2.52,16.72,16.72,0,0,0-2.38,2.4,10.15,10.15,0,0,0-1.39,2.24,6.71,6.71,0,0,0-.56,2.1,5.69,5.69,0,0,0,.1,1.9,6.21,6.21,0,0,0,.61,1.69,9.85,9.85,0,0,0,1,1.44,10.48,10.48,0,0,0,1.26,1.23,6.67,6.67,0,0,0,1.57.92,6.1,6.1,0,0,0,1.85.41,6.8,6.8,0,0,0,2.15-.2,11.06,11.06,0,0,0,2.45-1,17.67,17.67,0,0,0,2.77-1.94,14.39,14.39,0,0,0,3.18-3.52,7.74,7.74,0,0,0,1.14-3.17,5.54,5.54,0,0,0-.37-2.74,8.52,8.52,0,0,0-1.36-2.3"></path><path class="watermark-path" d="M382.66,141.76A32.3,32.3,0,0,1,388,138.1a34.12,34.12,0,0,1,5.15-2.35l3.69,4.4a19.62,19.62,0,0,0-2.37.6,22.08,22.08,0,0,0-2.61,1,26,26,0,0,0-2.77,1.49,23.9,23.9,0,0,0-2.8,2,21,21,0,0,0-2.8,2.78,13.19,13.19,0,0,0-1.64,2.51,7.29,7.29,0,0,0-.68,2.24,6.36,6.36,0,0,0,.06,2,5.8,5.8,0,0,0,.61,1.68,8.12,8.12,0,0,0,.93,1.38,9.16,9.16,0,0,0,1.08,1.08,6.56,6.56,0,0,0,1.48.9,6,6,0,0,0,1.87.48,6.76,6.76,0,0,0,2.28-.17,12,12,0,0,0,2.74-1.08,18.57,18.57,0,0,0,3.18-2.22c.58-.48,1.06-.92,1.46-1.31s.75-.77,1.05-1.12.57-.72.81-1.06l.73-1.09-1.82-2.17-5.45,4.57-3.3-3.94,10.3-8.65,7.71,9.19a29,29,0,0,1-1.67,2.43q-1,1.26-2.1,2.52c-.73.84-1.5,1.66-2.3,2.44s-1.57,1.5-2.33,2.14a31,31,0,0,1-3.59,2.61,22.15,22.15,0,0,1-3.64,1.83,15.56,15.56,0,0,1-3.62.89,11,11,0,0,1-3.49-.14,10.84,10.84,0,0,1-3.28-1.33,12.82,12.82,0,0,1-3-2.68,12.12,12.12,0,0,1-2.08-3.43A10.71,10.71,0,0,1,375,155a11.18,11.18,0,0,1,.51-3.51,15.51,15.51,0,0,1,1.57-3.43,21.44,21.44,0,0,1,2.42-3.28,30.19,30.19,0,0,1,3.14-3"></path><path class="watermark-path" d="M428.63,119.31a12.26,12.26,0,0,1,2.59,4.82,10.44,10.44,0,0,1,0,5,14.53,14.53,0,0,1-2.34,5,25.29,25.29,0,0,1-4.56,4.86,26,26,0,0,1-5.59,3.67,14.84,14.84,0,0,1-5.38,1.43,10.61,10.61,0,0,1-4.95-.89,12.15,12.15,0,0,1-4.3-3.37,12,12,0,0,1-2.56-4.81,10.48,10.48,0,0,1,0-5,14.39,14.39,0,0,1,2.35-5,27.89,27.89,0,0,1,10.16-8.53,14.49,14.49,0,0,1,5.36-1.43,10.27,10.27,0,0,1,4.92.92,12.21,12.21,0,0,1,4.28,3.37m-4.91,4.12a8.17,8.17,0,0,0-2-1.72,5.58,5.58,0,0,0-2.65-.86,7.86,7.86,0,0,0-3.31.58,14.49,14.49,0,0,0-4,2.52,16.21,16.21,0,0,0-2.38,2.4,9.85,9.85,0,0,0-1.4,2.24,7,7,0,0,0-.56,2.1,6,6,0,0,0,.1,1.9,6.23,6.23,0,0,0,.62,1.69,8.49,8.49,0,0,0,1,1.44,9.18,9.18,0,0,0,1.26,1.23,6.67,6.67,0,0,0,1.57.92,6,6,0,0,0,1.84.41,6.86,6.86,0,0,0,2.16-.2,11.26,11.26,0,0,0,2.45-1,17.62,17.62,0,0,0,2.76-1.94,14.67,14.67,0,0,0,3.19-3.52,7.71,7.71,0,0,0,1.13-3.17,5.53,5.53,0,0,0-.36-2.74,8.55,8.55,0,0,0-1.37-2.3"></path></g><rect data-element-id="element-id-54870" stroke-width="2" fill="transparent" class="invisible-element-box grouping-element" x="181" y="198" width="304" height="52" data-element-name="isPrimaryText"></rect><rect data-element-id="element-id-12577" stroke-width="2" fill="transparent" class="invisible-element-box grouping-element" x="65" y="198" width="78" height="74" data-element-name="isIcon"></rect><rect data-element-id="element-id-23506" stroke-width="2" fill="transparent" class="invisible-element-box individual-element" x="65" y="198" width="78" height="74"></rect><rect data-element-id="element-id-69685" stroke-width="2" fill="transparent" class="invisible-element-box individual-element" x="65" y="198" width="78" height="74"></rect><rect data-element-id="element-id-51820" stroke-width="2" fill="transparent" class="invisible-element-box grouping-element" x="187" y="258" width="205" height="14" data-element-name="isSecondaryText"></rect><rect data-element-id="element-id-4987" stroke-width="2" fill="transparent" class="invisible-element-box individual-element" x="181" y="198" width="48" height="52"></rect><rect data-element-id="element-id-4809" stroke-width="2" fill="transparent" class="invisible-element-box individual-element" x="403" y="198" width="48" height="52"></rect><rect data-element-id="element-id-16194" stroke-width="2" fill="transparent" class="invisible-element-box individual-element" x="342" y="199" width="45" height="50"></rect><rect data-element-id="element-id-87272" stroke-width="2" fill="transparent" class="invisible-element-box individual-element" x="242" y="199" width="38" height="50"></rect><rect data-element-id="element-id-94430" stroke-width="2" fill="transparent" class="invisible-element-box individual-element" x="292" y="199" width="36" height="51"></rect><rect data-element-id="element-id-13546" stroke-width="2" fill="transparent" class="invisible-element-box individual-element" x="456" y="199" width="29" height="50"></rect><rect data-element-id="element-id-86024" stroke-width="2" fill="transparent" class="invisible-element-box individual-element" x="92" y="234" width="24" height="24"></rect><rect data-element-id="element-id-10378" stroke-width="2" fill="transparent" class="invisible-element-box individual-element" x="187" y="258" width="15" height="14"></rect><rect data-element-id="element-id-39265" stroke-width="2" fill="transparent" class="invisible-element-box individual-element" x="338" y="258" width="13" height="14"></rect><rect data-element-id="element-id-21320" stroke-width="2" fill="transparent" class="invisible-element-box individual-element" x="260" y="258" width="12" height="14"></rect><rect data-element-id="element-id-69184" stroke-width="2" fill="transparent" class="invisible-element-box individual-element" x="301" y="258" width="12" height="14"></rect><rect data-element-id="element-id-53800" stroke-width="2" fill="transparent" class="invisible-element-box individual-element" x="381" y="258" width="10" height="14"></rect><rect data-element-id="element-id-80498" stroke-width="2" fill="transparent" class="invisible-element-box individual-element" x="158" y="198" width="1" height="74"></rect><rect data-element-id="element-id-30205" stroke-width="2" fill="transparent" class="invisible-element-box individual-element" x="231" y="258" width="4" height="14"></rect></svg>